<?xml version="1.0" standalone="no"?>
<!DOCTYPE svg PUBLIC "-//W3C//DTD SVG 20010904//EN"
 "http://www.w3.org/TR/2001/REC-SVG-20010904/DTD/svg10.dtd">
<svg version="1.0" xmlns="http://www.w3.org/2000/svg"
 width="293.000000pt" height="293.000000pt" viewBox="0 0 293.000000 293.000000"
 preserveAspectRatio="xMidYMid meet">
<metadata>
Created by potrace 1.14, written by Peter Selinger 2001-2017
</metadata>
<g transform="translate(0.000000,293.000000) scale(0.100000,-0.100000)"
fill="#000000" stroke="none">
<path d="M0 1465 l0 -1465 1465 0 1465 0 0 1465 0 1465 -1465 0 -1465 0 0
-1465z m1424 1163 c14 -6 28 -19 31 -30 8 -23 17 -23 57 2 43 26 66 25 95 -2
16 -15 65 -32 152 -54 516 -127 820 -518 821 -1054 0 -179 -34 -335 -107 -490
-46 -97 -133 -220 -155 -220 -25 0 -22 15 7 44 14 14 25 35 25 46 0 11 -11 32
-25 46 -29 29 -31 37 -9 55 35 29 34 80 -2 102 -19 11 -18 32 2 48 35 29 34
80 -2 102 -20 11 -17 30 6 50 28 24 26 68 -5 97 l-26 24 26 23 c33 31 33 72 0
103 -14 13 -25 27 -25 31 0 5 20 17 45 28 52 23 71 58 58 106 -12 42 -62 65
-140 65 -60 0 -63 1 -63 24 0 13 -16 55 -35 93 -97 195 -326 289 -530 218
-115 -40 -222 -142 -267 -255 -18 -44 -22 -76 -22 -160 0 -97 2 -110 31 -172
77 -164 223 -258 401 -258 188 0 355 119 411 293 12 34 15 37 52 37 47 0 52
-20 14 -56 -14 -13 -25 -32 -25 -44 0 -11 11 -32 25 -46 14 -14 25 -28 25 -31
0 -3 -11 -16 -25 -29 -14 -13 -25 -32 -25 -44 0 -11 11 -32 25 -46 14 -14 25
-27 25 -29 0 -2 -11 -15 -25 -29 -32 -32 -32 -61 0 -90 14 -13 25 -26 25 -29
0 -3 -11 -17 -25 -31 -32 -32 -32 -61 0 -90 31 -29 31 -33 0 -58 -33 -26 -32
-62 2 -94 l27 -25 -26 -22 c-31 -27 -38 -45 -27 -75 7 -19 1 -28 -49 -67 -67
-54 -227 -134 -332 -169 -301 -98 -704 -64 -970 81 -132 73 -281 202 -361 312
-74 103 -136 258 -165 410 -20 103 -22 327 -5 419 11 57 10 65 -7 90 -41 58
-57 123 -57 227 0 89 3 106 28 157 30 62 91 121 166 164 25 14 125 52 221 84
96 32 229 83 295 115 124 59 127 59 221 40 33 -7 58 3 123 50 38 28 58 31 95
13z m490 -621 c77 -35 140 -98 179 -176 29 -60 32 -74 32 -161 0 -84 -3 -102
-28 -152 -37 -76 -104 -143 -175 -176 -44 -21 -76 -27 -142 -30 -121 -5 -183
19 -272 108 -59 58 -69 75 -88 139 -64 209 53 418 263 472 57 15 172 3 231
-24z m410 -303 c21 -20 20 -68 -1 -85 -39 -33 -103 -9 -103 39 0 53 68 83 104
46z m-9 -234 c0 -19 -5 -25 -20 -23 -11 1 -23 -3 -26 -9 -10 -16 -30 27 -23
47 5 11 16 15 38 13 26 -2 31 -7 31 -28z m0 -150 c0 -19 -5 -25 -20 -23 -11 1
-23 -3 -26 -9 -9 -15 -30 27 -23 45 3 9 17 14 37 13 27 -1 32 -6 32 -26z m-20
-127 c15 2 20 -4 20 -23 0 -20 -5 -25 -32 -26 -20 -1 -34 4 -37 13 -7 18 14
60 23 45 3 -6 15 -10 26 -9z m0 -150 c15 2 20 -4 20 -23 0 -20 -5 -25 -32 -26
-20 -1 -34 4 -37 13 -7 18 14 60 23 45 3 -6 15 -10 26 -9z m-2 -144 c13 10 16
9 21 -7 10 -31 -3 -51 -30 -48 -37 4 -48 20 -34 46 9 17 14 20 20 9 7 -10 11
-10 23 0z m-20 -181 c-10 -12 -19 -15 -21 -8 -7 20 7 40 23 34 14 -6 14 -9 -2
-26z"/>
<path d="M1807 2336 c-32 -14 -81 -42 -108 -62 -43 -32 -50 -41 -47 -67 5 -53
26 -55 125 -13 51 22 112 40 145 43 57 6 58 5 95 -34 21 -22 46 -52 56 -66 33
-50 94 -22 81 37 -11 56 -55 124 -98 153 -59 40 -167 44 -249 9z"/>
<path d="M1020 1700 c-45 -24 -119 -52 -228 -86 -17 -5 10 -70 46 -107 68 -71
190 -48 239 46 18 36 24 150 8 166 -6 6 -29 -1 -65 -19z"/>
<path d="M1193 1005 c-23 -7 -63 -25 -88 -39 -50 -30 -65 -62 -46 -103 11 -24
12 -25 89 -16 113 12 266 7 356 -11 71 -15 81 -15 102 -1 31 20 32 67 2 95
-80 76 -292 114 -415 75z"/>
<path d="M1755 1850 c-28 -11 -72 -60 -84 -93 -19 -49 -13 -138 12 -187 25
-50 83 -90 132 -90 38 0 102 32 124 62 66 92 48 238 -38 295 -35 24 -106 30
-146 13z m53 -107 c2 -23 -3 -35 -20 -47 -28 -20 -33 -20 -53 0 -29 29 2 87
44 82 21 -2 27 -9 29 -35z"/>
</g>
</svg>
